# xmcd
#
# Track frame offsets: 
#        150
#        19537
#        39275
#        64172
#        76147
#        87057
#        103825
#        128812
#        151940
#        174135
#        185465
#        197162
#        218597
#
# Disc length: 3150 seconds
#
# Revision: 0
# Processed by: cddbd v1.5.2PL0 Copyright (c) Steve Scherf et al.
# Submitted via: ExactAudioCopyFreeDBPlugin 1.0
#
DISCID=970c4c0d
DTITLE=Roger Hatcher - The Best Of Roger Hatcher
DYEAR=1979
DGENRE=Soul
TTITLE0=Stormy Love Affair
TTITLE1=Heaven I Missing An Angel
TTITLE2=Warm And Tender Love
TTITLE3=I Got Caught Making Love
TTITLE4=I Dedicate My Life To You
TTITLE5=The Baby Won't Go To Sleep
TTITLE6=That's When I'll Stop Loving You
TTITLE7=Sugar Daddy
TTITLE8=She's All I Got
TTITLE9=Let Your Love Shine On Me
TTITLE10=Gonna Make Love To Somebody's Old Lady
TTITLE11=I Cried Like A Baby
TTITLE12=Nothing Takes The Place Of Your Love
EXTD=
EXTT0=
EXTT1=
EXTT2=
EXTT3=
EXTT4=
EXTT5=
EXTT6=
EXTT7=
EXTT8=
EXTT9=
EXTT10=
EXTT11=
EXTT12=
PLAYORDER=
